<?xml version="1.0" standalone="no"?>
<!DOCTYPE svg PUBLIC "-//W3C//DTD SVG 20010904//EN"
 "http://www.w3.org/TR/2001/REC-SVG-20010904/DTD/svg10.dtd">
<svg version="1.0" xmlns="http://www.w3.org/2000/svg"
 width="1624.000000pt" height="1624.000000pt" viewBox="0 0 1624.000000 1624.000000"
 preserveAspectRatio="xMidYMid meet">
<metadata>
Created by potrace 1.14, written by Peter Selinger 2001-2017
</metadata>
<g transform="translate(0.000000,1624.000000) scale(0.100000,-0.100000)"
fill="#000000" stroke="none">
<path d="M0 8180 c0 -2332 3 -4240 8 -4241 4 0 490 -1 1079 -2 708 -1 1074 1
1076 8 2 6 3 792 2 1748 l0 1737 1802 0 1803 0 0 -112 c1 -62 2 -848 3 -1747
l2 -1634 1039 0 c952 0 1040 1 1045 16 5 12 6 8396 2 8455 -1 9 -217 12 -1045
12 l-1045 0 0 -1282 c0 -706 0 -1444 -1 -1640 l0 -357 -1803 0 -1802 1 0 1636
0 1637 -1083 3 -1082 2 0 -4240z"/>
<path d="M10110 10575 c0 -1015 2 -1845 5 -1845 6 0 18 12 111 117 34 37 79
87 100 110 22 22 69 74 105 114 37 41 82 90 100 110 19 20 56 60 83 90 26 30
83 92 125 138 91 100 105 116 196 216 39 43 84 92 100 109 17 18 64 70 105
116 41 46 86 95 100 110 14 15 61 67 105 115 44 49 91 100 105 115 88 95 199
217 220 243 14 16 45 51 70 77 25 26 81 87 125 136 44 49 94 103 111 121 17
18 53 58 80 89 27 31 65 73 84 93 19 20 71 77 115 125 44 49 91 101 105 116
90 97 120 133 120 142 0 6 3 9 6 6 3 -4 22 12 42 35 41 47 102 113 147 162 17
18 57 63 90 100 33 37 80 89 105 115 47 49 181 197 213 234 10 12 39 44 65 72
51 55 195 213 233 255 13 15 41 45 61 68 l37 41 -1684 0 -1685 0 0 -1845z"/>
<path d="M16030 12338 c-41 -45 -91 -98 -110 -118 -19 -21 -75 -81 -125 -135
-49 -54 -108 -117 -130 -140 -51 -53 -233 -250 -269 -290 -15 -16 -74 -79
-130 -140 -57 -60 -123 -131 -146 -158 -24 -26 -72 -77 -107 -114 -35 -37 -63
-70 -63 -73 0 -4 -11 -13 -25 -20 -13 -7 -23 -16 -22 -19 2 -6 -31 -43 -138
-155 -22 -24 -78 -84 -125 -135 -47 -51 -107 -117 -135 -146 -27 -29 -90 -97
-140 -150 -49 -53 -108 -117 -130 -140 -22 -24 -85 -92 -140 -151 -55 -59
-113 -122 -130 -140 -16 -17 -68 -73 -115 -124 -47 -51 -109 -117 -137 -147
-29 -30 -53 -56 -53 -58 0 -2 -19 -23 -42 -47 -42 -42 -208 -221 -319 -342
-30 -32 -72 -78 -94 -101 -22 -23 -87 -93 -145 -156 -58 -62 -118 -127 -134
-144 -15 -16 -63 -68 -105 -114 -42 -45 -104 -112 -138 -148 -35 -35 -63 -66
-63 -68 0 -2 -21 -25 -46 -52 -26 -26 -67 -70 -93 -98 -26 -27 -76 -81 -111
-118 -62 -65 -64 -69 -46 -83 11 -8 16 -14 10 -14 -5 0 -5 -3 1 -8 11 -7 59
-61 140 -156 28 -32 62 -71 76 -86 14 -16 44 -50 65 -76 21 -26 51 -59 65 -75
14 -15 48 -54 75 -85 54 -63 108 -125 139 -159 11 -13 40 -46 65 -75 25 -29
55 -64 68 -77 13 -12 21 -23 19 -23 -3 0 10 -15 27 -33 17 -18 51 -57 76 -86
25 -30 56 -66 70 -81 14 -15 45 -51 70 -80 25 -29 56 -65 70 -80 14 -15 36
-40 49 -56 27 -33 141 -163 156 -180 10 -10 67 -76 151 -174 22 -25 53 -60 69
-79 17 -18 39 -43 50 -56 11 -12 39 -44 61 -71 58 -68 78 -91 134 -154 27 -30
58 -66 70 -80 41 -49 105 -122 137 -156 17 -19 30 -34 28 -34 -2 0 6 -10 18
-23 12 -12 45 -49 72 -81 28 -32 61 -71 75 -86 14 -16 32 -36 40 -46 9 -11 38
-44 64 -74 27 -30 58 -66 70 -80 36 -42 176 -203 215 -246 20 -22 54 -62 76
-88 22 -27 53 -62 68 -80 16 -17 40 -44 55 -61 15 -16 52 -59 82 -95 30 -36
69 -81 87 -100 17 -19 40 -45 50 -56 17 -21 89 -103 133 -154 12 -14 42 -50
68 -79 26 -30 54 -62 62 -71 8 -9 42 -47 75 -85 33 -39 64 -75 70 -81 5 -6 30
-34 55 -64 25 -29 59 -67 75 -85 17 -18 48 -54 69 -79 21 -26 51 -60 65 -76
14 -15 44 -49 66 -76 22 -26 47 -54 56 -63 8 -9 59 -67 112 -128 l97 -113 0
4305 0 4305 -68 0 -67 0 -75 -82z"/>
<path d="M10110 5758 l0 -1948 1730 0 c952 0 1730 3 1730 8 0 4 -26 34 -58 68
-31 33 -70 76 -86 95 -15 18 -59 68 -97 109 -37 41 -77 86 -89 100 -12 14 -48
54 -80 90 -32 36 -67 74 -77 86 -10 12 -47 54 -83 94 -36 40 -73 82 -83 94
-16 18 -65 72 -162 181 -11 12 -36 40 -55 62 -63 72 -165 186 -190 213 -14 15
-52 58 -85 95 -33 38 -65 73 -70 79 -6 6 -42 47 -80 90 -39 44 -77 87 -85 96
-8 9 -40 44 -70 79 -30 35 -66 75 -80 90 -14 15 -59 65 -100 111 -41 47 -79
90 -85 96 -17 18 -123 138 -142 160 -29 33 -135 151 -173 193 -19 21 -60 66
-90 101 -30 35 -66 76 -80 91 -14 15 -50 55 -80 90 -30 34 -68 77 -85 95 -16
18 -49 54 -71 80 -23 27 -59 68 -80 91 -22 22 -59 65 -84 93 -25 29 -58 67
-75 85 -16 17 -53 59 -82 91 -28 32 -64 73 -80 90 -15 16 -55 61 -88 99 -63
73 -114 129 -155 174 -14 16 -52 59 -85 96 -33 38 -69 78 -80 91 -12 12 -48
53 -80 90 -33 37 -77 86 -97 108 l-38 41 0 -1947z"/>
</g>
</svg>
