<?xml version="1.0" standalone="no"?>
<!DOCTYPE svg PUBLIC "-//W3C//DTD SVG 20010904//EN"
 "http://www.w3.org/TR/2001/REC-SVG-20010904/DTD/svg10.dtd">
<svg version="1.0" xmlns="http://www.w3.org/2000/svg"
 width="1624.000000pt" height="1624.000000pt" viewBox="0 0 1624.000000 1624.000000"
 preserveAspectRatio="xMidYMid meet">
<metadata>
Created by potrace 1.14, written by Peter Selinger 2001-2017
</metadata>
<g transform="translate(0.000000,1624.000000) scale(0.100000,-0.100000)"
fill="#000000" stroke="none">
<path d="M0 8180 l0 -4240 1080 0 1080 0 2 1743 3 1742 1803 3 1802 2 0 -1745
0 -1745 1045 0 1045 0 0 4240 0 4240 -1045 0 -1045 0 0 -1640 0 -1640 -1802 2
-1803 3 -3 1638 -2 1637 -1080 0 -1080 0 0 -4240z"/>
<path d="M10110 10574 c0 -1249 3 -1843 10 -1839 14 8 3344 3665 3348 3676 2
5 -724 9 -1677 9 l-1681 0 0 -1846z"/>
<path d="M15630 11907 c-262 -281 -1114 -1200 -1895 -2041 -781 -842 -1420
-1533 -1420 -1538 0 -4 68 -85 150 -180 185 -213 620 -712 1800 -2068 1701
-1956 1967 -2260 1971 -2260 2 0 4 1935 4 4300 l0 4300 -67 0 -68 0 -475 -513z"/>
<path d="M10110 5757 l0 -1947 1730 0 c952 0 1730 2 1730 5 0 2 -404 458 -897
1012 -1651 1855 -1786 2006 -2152 2418 -200 226 -375 421 -387 435 l-24 25 0
-1948z"/>
</g>
</svg>
