<?xml version="1.0" standalone="no"?>
<!DOCTYPE svg PUBLIC "-//W3C//DTD SVG 20010904//EN"
 "http://www.w3.org/TR/2001/REC-SVG-20010904/DTD/svg10.dtd">
<svg version="1.0" xmlns="http://www.w3.org/2000/svg"
 width="896.000000pt" height="896.000000pt" viewBox="0 0 896.000000 896.000000"
 preserveAspectRatio="xMidYMid meet">
<metadata>
Created by potrace 1.14, written by Peter Selinger 2001-2017
</metadata>
<g transform="translate(0.000000,896.000000) scale(0.100000,-0.100000)"
fill="#000000" stroke="none">
<path d="M11 7260 c-12 -8 -9 -5570 4 -5570 13 -1 8776 -1 8871 0 l71 0 0
2785 c0 2018 -3 2785 -11 2786 -38 4 -8929 3 -8935 -1z m4430 -279 l35 -1 0
-321 c-1 -204 3 -323 9 -327 6 -4 220 -7 477 -7 257 -1 470 -3 473 -7 9 -9 12
-87 3 -100 -3 -7 -4 -16 -1 -22 8 -13 8 -108 0 -129 -4 -10 -3 -17 1 -17 9 0
7 -114 -2 -128 -3 -6 -3 -13 1 -15 7 -5 9 -69 3 -142 -1 -16 -1 -34 0 -40 2
-15 3 -138 0 -150 -1 -5 -1 -13 0 -17 5 -19 3 -117 -3 -131 -4 -10 -3 -17 1
-17 9 0 7 -114 -2 -128 -3 -6 -3 -13 1 -15 7 -5 9 -69 3 -142 -1 -16 -1 -32 0
-35 4 -14 2 -188 -3 -196 -3 -6 -2 -15 1 -21 4 -7 7 -37 6 -67 -2 -31 1 -56 5
-56 4 0 31 28 61 61 30 34 73 81 95 104 22 24 56 60 74 81 59 66 215 237 241
265 14 15 54 59 90 99 36 39 79 86 95 104 17 18 64 70 105 116 41 46 89 98
105 115 25 26 163 178 200 219 6 7 33 36 60 66 28 31 93 102 145 160 52 57
113 122 135 145 l40 41 550 -2 c303 -1 554 -2 559 -3 6 -1 1 -9 -10 -20 -10
-10 -62 -65 -114 -121 -52 -57 -115 -125 -140 -151 -25 -26 -79 -84 -120 -130
-41 -45 -97 -105 -123 -133 -27 -28 -81 -86 -120 -129 -40 -43 -94 -102 -122
-132 -58 -62 -238 -254 -285 -305 -18 -19 -76 -82 -130 -140 -54 -58 -112
-121 -130 -140 -61 -66 -245 -265 -282 -304 -21 -22 -38 -43 -38 -46 0 -5 63
-83 91 -113 8 -8 30 -34 49 -57 19 -23 49 -57 65 -74 17 -18 54 -61 84 -97 30
-35 64 -74 75 -85 12 -12 39 -44 61 -70 45 -55 251 -291 299 -344 18 -19 90
-102 161 -185 71 -82 134 -155 140 -161 5 -6 35 -39 65 -74 50 -58 94 -109
184 -211 17 -19 51 -59 76 -89 25 -29 50 -58 56 -64 5 -6 39 -45 74 -86 36
-41 81 -93 101 -115 20 -22 51 -57 69 -77 l32 -38 -575 0 c-479 0 -577 2 -584
14 -4 7 -37 46 -73 86 -36 40 -72 81 -80 90 -45 52 -149 168 -175 196 -16 17
-50 55 -75 84 -25 29 -52 60 -61 69 -8 9 -73 81 -144 161 -70 80 -142 161
-159 180 -58 65 -201 224 -223 250 -53 61 -70 80 -98 111 -17 19 -69 77 -115
129 -47 52 -89 100 -95 106 -46 49 -142 159 -148 170 -12 21 -40 18 -30 -3 10
-21 9 -115 -1 -132 -4 -6 -4 -11 1 -11 7 0 9 -97 3 -125 -1 -5 -2 -14 0 -20 5
-28 2 -314 -4 -324 -4 -6 -4 -11 1 -11 7 0 9 -196 3 -225 -1 -5 -2 -12 -1 -15
7 -18 4 -340 -2 -340 -5 0 -5 -5 -1 -11 8 -14 11 -149 3 -149 -3 0 -3 -20 1
-45 4 -24 3 -50 -1 -56 -4 -7 -5 -19 -1 -27 4 -13 6 -80 3 -137 -1 -13 -61
-15 -480 -15 -374 0 -480 3 -483 13 -2 6 -3 838 -3 1847 l1 1835 -468 0 c-408
0 -469 -2 -472 -15 -2 -8 -3 -331 -2 -718 l1 -702 -65 0 c-98 -1 -1423 -1
-1435 0 -8 0 -11 224 -10 708 1 389 -2 712 -6 717 -5 6 -173 10 -471 9 l-463
0 -2 -140 c-1 -76 -2 -148 -3 -159 -1 -11 0 -52 1 -91 1 -40 -2 -77 -5 -83 -4
-6 -4 -11 1 -11 6 0 8 -2530 3 -2695 -1 -11 0 -52 1 -91 1 -40 -2 -77 -5 -83
-4 -6 -4 -11 1 -11 4 0 7 -74 6 -165 l-3 -165 173 0 c604 -1 761 0 766 9 3 5
6 339 6 743 -1 403 2 735 6 738 5 4 1447 5 1494 1 7 -1 10 -256 9 -746 l0
-745 145 0 c80 0 293 0 472 0 l325 0 0 -328 -1 -327 -2094 0 -2095 0 0 2488
c-1 1369 2 2496 5 2505 6 16 140 17 2060 15 1130 -1 2070 -2 2090 -2z"/>
</g>
</svg>
