<svg xmlns="http://www.w3.org/2000/svg" viewBox="0 0 441 275" width="441" height="275">
	<style>
	
		.shp0 {
			fill: #ffffff
		}
	</style>
	<path class="shp0"
		d="M173.71 117.01L99.5 117.01L99.5 46.41L53.13 46.41L53.13 228.06L99.5 228.06L99.5 154.63L173.71 154.63L173.71 228.06L220.1 228.06L220.1 46.41L173.71 46.41L173.71 117.01L173.71 117.01Z" />
	<path fill-rule="evenodd" class="shp0"
		d="M440.37 0.2L440.37 274.28L0.2 274.28L0.2 0.2L440.37 0.2ZM396.86 228.06L313.86 132.73L394 46.41L338.62 46.41L267.51 124.48L267.51 46.41L220.1 46.41L220.1 14.05L14.1 14.05L14.1 260.42L220.1 260.42L220.1 228.06L267.51 228.06L267.51 145.87L340.68 228.06L396.86 228.06Z" />
</svg>