<?xml version="1.0" encoding="UTF-8"?> <svg xmlns="http://www.w3.org/2000/svg" id="Layer_1" data-name="Layer 1" viewBox="0 0 1168.57 556.81"><defs><style>.cls-1{fill:#fff;}</style></defs><title>HowardKind-vertical white</title><path class="cls-1" d="M123.12,398.67h27.21V505.25H123.12V462.17H79.58v43.08H52.37V398.67H79.58v41.42h43.54Z"></path><path class="cls-1" d="M192,499.88a45.84,45.84,0,0,1-18.52-19.05q-6.5-12.31-6.5-28.94t6.5-29A45.47,45.47,0,0,1,192,404q12-6.65,28.35-6.65T248.67,404a45,45,0,0,1,18.45,19q6.42,12.33,6.42,29T267,480.83a45.78,45.78,0,0,1-18.52,19.05q-12,6.74-28.19,6.73Q204,506.61,192,499.88Zm47.25-23.13q6.79-8.53,6.8-24.86t-6.88-24.8q-6.89-8.46-18.82-8.47-12.11,0-18.9,8.4t-6.8,24.87q0,16.47,6.8,24.94t18.9,8.47Q232.42,485.3,239.23,476.75Z"></path><path class="cls-1" d="M418.37,398.67h26.3L406.58,505.25H384.51L362,441.3l-22.83,63.95H316.93L279,398.67h28.27l22.08,67.58,23.88-67.58h19.2l22.83,68.79Z"></path><path class="cls-1" d="M526.62,505.25l-9.53-22.07H469.92l-9.52,22.07h-28l49.74-106.58h22.07l49.88,106.58Zm-47.78-42.94h29.33l-14.66-34.16Z"></path><path class="cls-1" d="M656.33,505.25H625.79l-18.45-34q-3.47-5.89-11-5.89h-8.47v39.91H560.48V398.67h50.79q19.35,0,29.1,8.39t9.75,24.26q0,12.1-6.65,20.49t-18.74,11.26Q634,465,639.39,475ZM620.12,441.6q4-2.87,4-9.37t-4-9.6q-4-2.94-13.23-2.95H587.54v24.8h19.35Q616.12,444.48,620.12,441.6Z"></path><path class="cls-1" d="M667.35,398.67h43.4q17.68,0,30.45,6.35a44.76,44.76,0,0,1,19.58,18.37q6.81,12,6.81,28.5t-6.73,28.64a44.46,44.46,0,0,1-19.5,18.37q-12.78,6.35-30.61,6.35h-43.4Zm41.43,84.21q15.72,0,23.43-7.71t7.71-23.28q0-15.58-7.71-23.21T708.78,421H695.17v61.84Z"></path><path class="cls-1" d="M867.52,505.25H855l-57.3-50.95v50.95H788.3V398.67h9.37V448.1l54.43-49.43h12.25l-57.6,52Z"></path><path class="cls-1" d="M881,505.25V398.67h9.37V505.25Z"></path><path class="cls-1" d="M992.69,398.67h8.77V505.25H994.2l-67.57-90.86v90.86h-8.77V398.67h7.4l67.43,90.71Z"></path><path class="cls-1" d="M1029,398.67h34.32q25.39,0,39.15,13.83t13.76,39.39q0,25.55-13.83,39.45t-39.08,13.91H1029Zm33.86,98.42q21.62,0,32.58-11.34t11-33.86q0-45.06-43.54-45.06h-24.49v90.26Z"></path><polygon class="cls-1" points="537.71 167.01 463.5 167.01 463.5 96.41 417.13 96.41 417.13 278.06 463.5 278.06 463.5 204.63 537.71 204.63 537.71 278.06 584.1 278.06 584.1 96.41 537.71 96.41 537.71 167.01"></polygon><path class="cls-1" d="M584.1,50.2H364.2V324.28H804.37V50.2ZM704.68,278.06l-73.17-82.19v82.19H584.1v32.36h-206V64.05h206V96.41h47.41v78.07l71.11-78.07H758l-80.14,86.32,83,95.33Z"></path></svg> 