<?xml version="1.0" encoding="UTF-8" standalone="no"?>
<svg
   id="Layer_1"
   data-name="Layer 1"
   viewBox="0 0 260.12158 261.89642"
   version="1.1"
   sodipodi:docname="HK logo light (blue) 260x260.svg"
   width="260.12158"
   height="261.89642"
   inkscape:version="1.1.1 (3bf5ae0d25, 2021-09-20)"
   xmlns:inkscape="http://www.inkscape.org/namespaces/inkscape"
   xmlns:sodipodi="http://sodipodi.sourceforge.net/DTD/sodipodi-0.dtd"
   xmlns="http://www.w3.org/2000/svg"
   xmlns:svg="http://www.w3.org/2000/svg"
   xmlns:rdf="http://www.w3.org/1999/02/22-rdf-syntax-ns#"
   xmlns:cc="http://creativecommons.org/ns#"
   xmlns:dc="http://purl.org/dc/elements/1.1/">
  <sodipodi:namedview
     id="namedview33"
     pagecolor="#ffffff"
     bordercolor="#666666"
     borderopacity="1.0"
     inkscape:pageshadow="2"
     inkscape:pageopacity="0.0"
     inkscape:pagecheckerboard="0"
     showgrid="false"
     inkscape:zoom="1.5765544"
     inkscape:cx="182.67686"
     inkscape:cy="68.820969"
     inkscape:window-width="1920"
     inkscape:window-height="1016"
     inkscape:window-x="0"
     inkscape:window-y="27"
     inkscape:window-maximized="1"
     inkscape:current-layer="layer2"
     showguides="true"
     inkscape:guide-bbox="true">
    <sodipodi:guide
       position="-129.93093,463.8232"
       orientation="1,0"
       id="guide10800" />
    <sodipodi:guide
       position="130.06907,463.8232"
       orientation="1,0"
       id="guide10802" />
    <sodipodi:guide
       position="-129.93093,463.8232"
       orientation="0,-1"
       id="guide10806" />
    <sodipodi:guide
       position="-129.93093,203.82321"
       orientation="0,-1"
       id="guide10808" />
  </sodipodi:namedview>
  <defs
     id="defs4">
    <style
       id="style2">.cls-1{fill:#fff;}</style>
  </defs>
  <title
     id="title6">HowardKind-horizontal white</title>
  <g
     inkscape:groupmode="layer"
     id="layer1"
     inkscape:label="Layer 1"
     style="display:inline"
     transform="translate(269.13319,-128.44489)">
    <path
       style="fill:#f9f9f9;stroke-width:17.9406;stroke-miterlimit:5.2"
       d="m 0,235.46987 v -24.21976 h 130.06907 130.06907 v 24.21976 24.21976 H 130.06907 0 Z"
       id="path10847"
       transform="translate(-399.18572,-73.481895)" />
  </g>
  <g
     inkscape:groupmode="layer"
     id="layer2"
     inkscape:label="Layer 2"
     transform="translate(269.13319,-128.44489)"
     style="display:inline">
    <path
       class="cls-1"
       d="m -139.16543,178.35021 h -129.96775 v 161.9911 H -9.0115967 v -161.9911 z m 71.278193,134.67355 -43.256113,-48.5867 v 48.5867 h -28.02208 v 19.12893 H -260.94456 V 186.53883 h 121.77913 v 19.11564 h 28.02208 v 46.15404 l 42.033133,-46.15404 h 32.74119 l -47.36372,51.01935 49.03866,56.34994 z"
       id="path30"
       style="display:inline;fill:#000080;stroke-width:1.32932" />
    <path
       style="display:inline;fill:#3134d8;fill-opacity:1;stroke-width:17.9406;stroke-miterlimit:5.2"
       d="m -269.13319,259.17742 v -80.73253 h 129.62056 129.6205533 v 80.73253 80.73253 H -139.51263 -269.13319 Z m 130.06907,63.68899 v -9.86731 h 14.33755 14.33755 l 0.23916,-23.17969 0.23914,-23.17968 20.631653,23.17727 20.63165,23.17728 17.33091,0.003 17.33092,0.003 -8.36064,-9.61635 c -4.59834,-5.28899 -15.54219,-17.85379 -24.31966,-27.92178 -8.77747,-10.06799 -15.84157,-18.62979 -15.69799,-19.02623 0.14357,-0.39643 9.72021,-10.89739 21.28143,-23.33548 11.56122,-12.43807 21.99141,-23.76867 23.17822,-25.17911 l 2.15781,-2.56497 h -16.93196 -16.93196 l -20.15019,22.17409 -20.150193,22.17472 -0.23992,-22.17472 -0.23993,-22.17471 h -14.33678 -14.33677 v -9.4188 -9.41879 h -60.99791 -60.99791 v 73.10778 73.10779 h 60.99791 60.99791 z"
       id="path11223" />
    <path
       style="display:inline;fill:#3134d8;fill-opacity:1;stroke-width:17.8851;stroke-miterlimit:5.2"
       d="m -237.6453,258.88933 v -52.88889 h 13.49481 13.4948 v 20.44445 20.44444 h 22.49135 22.49136 v -20.44444 -20.44445 h 13.04498 13.04498 v 52.88889 52.88889 h -13.04498 -13.04498 v -21.77778 -21.77777 h -22.49136 -22.49135 v 21.77777 21.77778 h -13.4948 -13.49481 z"
       id="path11262" />
    <path
       style="display:inline;fill:#3134d8;fill-opacity:1;stroke-width:17.9406;stroke-miterlimit:5.2"
       d="m -204.32291,177.77221 c 35.89234,-0.12983 94.62524,-0.12983 130.517583,0 35.89233,0.12984 6.52587,0.23607 -65.258793,0.23607 -71.78467,0 -101.15113,-0.10623 -65.25879,-0.23607 z"
       id="path11379" />
    <path
       style="display:inline;fill:#3134d8;fill-opacity:1;stroke-width:17.8851;stroke-miterlimit:5.2"
       d="m -269.13319,258.44489 v -80 h 130 130 v 80 80 h -130 -130 z m 130.44983,63.11111 v -9.77778 h 14.39445 c 7.91696,0 14.45093,-0.1 14.51993,-0.22222 0.069,-0.12223 0.37265,-10.09467 0.67474,-22.161 l 0.54927,-21.93876 19.792397,22.12269 19.79239,22.12271 17.768162,0.0383 c 9.772493,0.0211 17.768171,-0.16283 17.768171,-0.40864 0,-0.24581 -8.557919,-10.14581 -19.017578,-22 -10.45967,-11.85419 -21.236425,-24.25648 -23.94835,-27.56063 l -4.930782,-6.00757 3.488883,-3.77021 c 1.918881,-2.07362 12.189589,-13.10561 22.823788,-24.51554 10.634199,-11.40993 19.469848,-21.10993 19.63478,-21.55556 0.174218,-0.4707 -6.988699,-0.79631 -17.093422,-0.77702 l -17.393308,0.0331 -19.567473,21.33464 -19.567478,21.33464 v -17.24379 c 0,-9.48407 -0.25745,-19.09961 -0.57211,-21.36784 l -0.57212,-4.12406 h -14.27217 -14.27217 v -9.33333 -9.33333 h -61.17648 -61.17647 v 72.44443 72.44444 h 61.17647 61.17648 z"
       id="path11418" />
    <path
       style="display:inline;fill:none;fill-opacity:1;stroke-width:12.6859;stroke-miterlimit:5.2"
       d="m -139.73708,259.27011 v -53.28074 h 14.2638 14.26382 l 0.16638,23.05679 0.16639,23.0568 20.931733,-23.03754 20.93172,-23.03753 15.77645,-0.0193 c 14.68571,-0.0179 15.71628,0.0542 14.90593,1.04402 -0.47879,0.58481 -10.93203,11.90425 -23.22942,25.15433 -12.29739,13.25007 -22.35597,24.26026 -22.3524,24.46707 0.005,0.31286 9.8748,11.73011 45.14882,52.22962 l 3.17661,3.64719 h -16.09669 -16.0967 l -21.54802,-24.19852 -21.548033,-24.19852 -0.16611,24.19852 -0.16611,24.19852 h -14.26409 -14.26408 z"
       id="path12306" />
    <path
       style="display:inline;fill:none;fill-opacity:1;stroke-width:12.6859;stroke-miterlimit:5.2"
       d="m -260.88736,259.27011 v -72.30958 h 60.57514 60.57514 v 9.51442 9.51442 h -13.32019 -13.32019 v 20.61457 20.61458 h -22.20031 -22.20032 v -20.61458 -20.61457 h -13.63733 -13.63734 v 53.59789 53.5979 h 13.63734 13.63733 v -21.88317 -21.88316 h 22.20032 22.20031 v 21.88316 21.88317 h 13.32019 13.32019 v 9.19727 9.19727 h -60.57514 -60.57514 z"
       id="path12345" />
    <rect
       style="fill:#3134d8;fill-opacity:1;stroke-width:16.9961;stroke-miterlimit:5.2"
       id="rect13912"
       width="260"
       height="50"
       x="-269.13318"
       y="340.34131" />
    <rect
       style="fill:#3134d8;fill-opacity:1;stroke-width:20.9143;stroke-miterlimit:5.2"
       id="rect14154"
       width="260"
       height="50"
       x="-269.13318"
       y="128.44489" />
  </g>
  <path
     class="cls-1"
     d="m 561.19183,-273.71112 h 21.53 v 84.17 h -21.53 v -34 h -34.38 v 34 h -21.49 v -84.17 h 21.49 v 32.72 h 34.38 z"
     id="path8"
     style="fill:#000080" />
  <path
     class="cls-1"
     d="m 618.65319,-29.67488 a 36.23,36.23 0 0 1 -14.62,-15 q -5.13,-9.73 -5.13,-22.86 0,-13.13 5.13,-22.87 a 35.91,35.91 0 0 1 14.62,-15.00001 q 9.5,-5.25 22.39,-5.25 12.89,0 22.38,5.25 a 35.56,35.56 0 0 1 14.57,15.00001 q 5.07,9.74 5.07,22.87 0,13.13 -5.13,22.79 a 36.26,36.26 0 0 1 -14.63,15 q -9.48,5.31 -22.26,5.31 -12.78,0 -22.39,-5.24 z m 37.31,-18.27 q 5.37,-6.73 5.37,-19.63 0,-12.9 -5.43,-19.58 -5.43,-6.69 -14.86,-6.69 -9.43,0 -14.92,6.63 -5.38,6.61 -5.38,19.64 0,13.03 5.38,19.69 5.37,6.69 14.92,6.69 9.55,0 14.92,-6.75 z"
     id="path10"
     style="fill:#000080" />
  <path
     class="cls-1"
     d="m 797.43319,-109.60489 h 20.77 l -30.09,84.17001 h -17.43 l -17.79,-50.5 -18,50.5 h -17.57 l -30,-84.17001 h 22.33 l 17.43,53.37001 18.86,-53.37001 h 15.16 l 18,54.32001 z"
     id="path12"
     style="fill:#000080" />
  <path
     class="cls-1"
     d="m 882.90317,-25.43488 -7.52,-17.43 h -37.24998 l -7.52,17.43 h -22.08 l 39.28,-84.17001 h 17.43 l 39.38998,84.17001 z m -37.72998,-33.91 h 23.17 l -11.53,-26.98 z"
     id="path14"
     style="fill:#000080" />
  <path
     class="cls-1"
     d="m 985.33317,-25.43488 h -24.11 l -14.57,-26.86 q -2.75,-4.67 -8.72,-4.66 h -6.68 v 31.52 h -21.61 v -84.17001 h 40.11 q 15.28,0 23,6.63 7.72,6.63001 7.7,19.16001 a 25.25,25.25 0 0 1 -5.25,16.18 q -5.25,6.61 -14.8,8.89 7.27,1.55 11.58,9.43 z m -28.59,-50.26 c 2.1,-1.51 3.16,-4 3.16,-7.4 0,-3.4 -1.06,-6 -3.16,-7.58 -2.1,-1.58 -5.59,-2.33 -10.45,-2.33 h -15.28 v 19.58 h 15.28 q 7.29,0 10.45,-2.27 z"
     id="path16"
     style="fill:#000080" />
  <path
     class="cls-1"
     d="m 994.04317,-109.60489 h 34.26003 q 14,0 24.06,5 a 35.4,35.4 0 0 1 15.45,14.52001 q 5.37,9.5 5.37,22.51 0,13.01 -5.32,22.62 a 35.08,35.08 0 0 1 -15.39,14.5 q -10.09,5 -24.18,5 h -34.25003 z m 32.71003,66.50001 q 12.4,0 18.51,-6.09 6.11,-6.09 6.08,-18.38 0,-12.3 -6.08,-18.33 -6.08,-6.03 -18.51,-6 h -10.74 v 48.83 z"
     id="path18"
     style="fill:#000080" />
  <path
     class="cls-1"
     d="m 1152.1032,-25.43488 h -9.91 l -45.24,-40.23 v 40.23 h -7.4 v -84.17001 h 7.4 v 39.00001 l 43,-39.00001 h 9.67 l -45.51,41.07001 z"
     id="path20"
     style="fill:#000080" />
  <path
     class="cls-1"
     d="m 1162.7332,-25.43488 v -84.17001 h 7.4 v 84.17001 z"
     id="path22"
     style="fill:#000080" />
  <path
     class="cls-1"
     d="m 1250.9532,-109.60489 h 6.92 v 84.17001 h -5.73 l -53.33,-71.75 v 71.75 h -7 v -84.17001 h 5.85 l 53.25,71.63001 z"
     id="path24"
     style="fill:#000080" />
  <path
     class="cls-1"
     d="m 1279.6032,-109.60489 h 27.09 q 20.05,0 30.92,10.93001 10.87,10.93 10.86,31.1 0,20.17 -10.92,31.15 -10.92,10.98 -30.86,11 h -27.09 z m 26.73,77.72001 q 17.07,0 25.73,-9 8.66,-9 8.66,-26.74 0,-35.58001 -34.39,-35.58001 h -19.33 v 71.27001 z"
     id="path26"
     style="fill:#000080" />
  <metadata
     id="metadata850">
    <rdf:RDF>
      <cc:Work
         rdf:about="">
        <dc:title>HowardKind-horizontal white</dc:title>
      </cc:Work>
    </rdf:RDF>
  </metadata>
</svg>
