<?xml version="1.0" encoding="UTF-8" standalone="no"?>
<svg
   id="Layer_1"
   data-name="Layer 1"
   viewBox="0 0 195.67999 121.86"
   version="1.1"
   sodipodi:docname="HK logo light (copy).svg"
   width="195.67999"
   height="121.86"
   inkscape:version="1.1.1 (3bf5ae0d25, 2021-09-20)"
   xmlns:inkscape="http://www.inkscape.org/namespaces/inkscape"
   xmlns:sodipodi="http://sodipodi.sourceforge.net/DTD/sodipodi-0.dtd"
   xmlns="http://www.w3.org/2000/svg"
   xmlns:svg="http://www.w3.org/2000/svg"
   xmlns:rdf="http://www.w3.org/1999/02/22-rdf-syntax-ns#"
   xmlns:cc="http://creativecommons.org/ns#"
   xmlns:dc="http://purl.org/dc/elements/1.1/">
  <sodipodi:namedview
     id="namedview33"
     pagecolor="#ffffff"
     bordercolor="#666666"
     borderopacity="1.0"
     inkscape:pageshadow="2"
     inkscape:pageopacity="0.0"
     inkscape:pagecheckerboard="0"
     showgrid="false"
     inkscape:zoom="1.1147923"
     inkscape:cx="-119.30474"
     inkscape:cy="113.47405"
     inkscape:window-width="1920"
     inkscape:window-height="1016"
     inkscape:window-x="0"
     inkscape:window-y="27"
     inkscape:window-maximized="1"
     inkscape:current-layer="layer2" />
  <defs
     id="defs4">
    <style
       id="style2">.cls-1{fill:#fff;}</style>
  </defs>
  <title
     id="title6">HowardKind-horizontal white</title>
  <g
     inkscape:groupmode="layer"
     id="layer2"
     inkscape:label="Layer 2">
    <rect
       style="display:inline;fill:#f9f9f9;stroke-width:20;stroke-miterlimit:5.2"
       id="rect1024"
       width="234.93349"
       height="174.21935"
       x="-17.74844"
       y="-24.147543" />
  </g>
  <path
     class="cls-1"
     d="m 292.05864,-145.26623 h 21.53 v 84.169995 h -21.53 v -33.999999 h -34.38 v 33.999999 h -21.49 v -84.169995 h 21.49 v 32.72 h 34.38 z"
     id="path8"
     style="fill:#000080" />
  <path
     class="cls-1"
     d="m 349.52,98.77 a 36.23,36.23 0 0 1 -14.62,-15 q -5.13,-9.73 -5.13,-22.86 0,-13.13 5.13,-22.87 a 35.91,35.91 0 0 1 14.62,-15 q 9.5,-5.25 22.39,-5.25 12.89,0 22.38,5.25 a 35.56,35.56 0 0 1 14.57,15 q 5.07,9.74 5.07,22.87 0,13.13 -5.13,22.79 a 36.26,36.26 0 0 1 -14.63,15 q -9.48,5.31 -22.26,5.31 -12.78,0 -22.39,-5.24 z M 386.83,80.5 q 5.37,-6.73 5.37,-19.63 0,-12.9 -5.43,-19.58 -5.43,-6.69 -14.86,-6.69 -9.43,0 -14.92,6.63 -5.38,6.61 -5.38,19.64 0,13.03 5.38,19.69 5.37,6.69 14.92,6.69 9.55,0 14.92,-6.75 z"
     id="path10"
     style="fill:#000080" />
  <path
     class="cls-1"
     d="m 528.3,18.84 h 20.77 l -30.09,84.17 h -17.43 l -17.79,-50.5 -18,50.5 h -17.57 l -30,-84.17 h 22.33 l 17.43,53.37 18.86,-53.37 h 15.16 l 18,54.32 z"
     id="path12"
     style="fill:#000080" />
  <path
     class="cls-1"
     d="M 613.77,103.01 606.25,85.58 H 569 l -7.52,17.43 H 539.4 l 39.28,-84.17 h 17.43 l 39.39,84.17 z M 576.04,69.1 h 23.17 L 587.68,42.12 Z"
     id="path14"
     style="fill:#000080" />
  <path
     class="cls-1"
     d="M 716.2,103.01 H 692.09 L 677.52,76.15 q -2.75,-4.67 -8.72,-4.66 h -6.68 v 31.52 H 640.51 V 18.84 h 40.11 q 15.28,0 23,6.63 7.72,6.63 7.7,19.16 a 25.25,25.25 0 0 1 -5.25,16.18 q -5.25,6.61 -14.8,8.89 7.27,1.55 11.58,9.43 z M 687.61,52.75 c 2.1,-1.51 3.16,-4 3.16,-7.4 0,-3.4 -1.06,-6 -3.16,-7.58 -2.1,-1.58 -5.59,-2.33 -10.45,-2.33 h -15.28 v 19.58 h 15.28 q 7.29,0 10.45,-2.27 z"
     id="path16"
     style="fill:#000080" />
  <path
     class="cls-1"
     d="m 724.91,18.84 h 34.26 q 14,0 24.06,5 a 35.4,35.4 0 0 1 15.45,14.52 q 5.37,9.5 5.37,22.51 0,13.01 -5.32,22.62 a 35.08,35.08 0 0 1 -15.39,14.5 q -10.09,5 -24.18,5 h -34.25 z m 32.71,66.5 q 12.4,0 18.51,-6.09 6.11,-6.09 6.08,-18.38 0,-12.3 -6.08,-18.33 -6.08,-6.03 -18.51,-6 h -10.74 v 48.83 z"
     id="path18"
     style="fill:#000080" />
  <path
     class="cls-1"
     d="m 882.97,103.01 h -9.91 L 827.82,62.78 v 40.23 h -7.4 V 18.84 h 7.4 v 39 l 43,-39 h 9.67 l -45.51,41.07 z"
     id="path20"
     style="fill:#000080" />
  <path
     class="cls-1"
     d="M 893.6,103.01 V 18.84 h 7.4 v 84.17 z"
     id="path22"
     style="fill:#000080" />
  <path
     class="cls-1"
     d="m 981.82,18.84 h 6.92 v 84.17 h -5.73 L 929.68,31.26 v 71.75 h -7 V 18.84 h 5.85 l 53.25,71.63 z"
     id="path24"
     style="fill:#000080" />
  <path
     class="cls-1"
     d="m 1010.47,18.84 h 27.09 q 20.05,0 30.92,10.93 10.87,10.93 10.86,31.1 0,20.17 -10.92,31.15 -10.92,10.98 -30.86,11 h -27.09 z m 26.73,77.72 q 17.07,0 25.73,-9 8.66,-9 8.66,-26.74 0,-35.58 -34.39,-35.58 h -19.33 v 71.27 z"
     id="path26"
     style="fill:#000080" />
  <path
     class="cls-1"
     d="m 77.15,20.54 h 20.62 v 80.77 H 77.15 V 68.7 h -33 v 32.65 H 23.54 V 20.54 h 20.61 v 31.39 h 33 z"
     id="path28"
     style="fill:#000080" />
  <metadata
     id="metadata850">
    <rdf:RDF>
      <cc:Work
         rdf:about="">
        <dc:title>HowardKind-horizontal white</dc:title>
      </cc:Work>
    </rdf:RDF>
  </metadata>
  <g
     inkscape:groupmode="layer"
     id="layer1"
     inkscape:label="Layer 1"
     style="display:inline">
    <path
       class="cls-1"
       d="M 97.77,0 H 0 V 121.86 H 195.68 V 0 Z m 53.62,101.31 -32.54,-36.55 v 36.55 H 97.77 V 115.7 H 6.16 V 6.16 h 91.61 v 14.38 h 21.08 v 34.72 l 31.62,-34.72 h 24.63 l -35.63,38.38 36.89,42.39 z"
       id="path30"
       style="fill:#000080" />
  </g>
</svg>
