<svg id="Layer_1" data-name="Layer 1" xmlns="http://www.w3.org/2000/svg" viewBox="0 0 1149.99 190.45"><defs><style>.cls-1{fill:#1a1a1a;}</style></defs><title>HowardKind-horizontal</title><path class="cls-1" d="M330.47,53.14H352v84.17H330.47v-34H296.09v34H274.6V53.14h21.49V85.86h34.38Z"/><path class="cls-1" d="M384.84,133.07a36.23,36.23,0,0,1-14.62-15q-5.13-9.73-5.13-22.86t5.13-22.87a35.91,35.91,0,0,1,14.62-15q9.5-5.25,22.39-5.25t22.38,5.25a35.56,35.56,0,0,1,14.57,15q5.07,9.74,5.07,22.87T444.12,118a36.26,36.26,0,0,1-14.63,15q-9.48,5.31-22.26,5.31T384.84,133.07Zm37.31-18.27q5.37-6.73,5.37-19.63t-5.43-19.58q-5.43-6.69-14.86-6.69t-14.92,6.63q-5.38,6.61-5.38,19.64t5.38,19.69q5.37,6.69,14.92,6.69T422.15,114.8Z"/><path class="cls-1" d="M563.62,53.14h20.77L554.3,137.31H536.87l-17.79-50.5-18,50.5H483.51l-30-84.17h22.33l17.43,53.37,18.86-53.37h15.16l18,54.32Z"/><path class="cls-1" d="M649.09,137.31l-7.52-17.43H604.32l-7.52,17.43H574.72L614,53.14h17.43l39.39,84.17ZM611.36,103.4h23.17L623,76.42Z"/><path class="cls-1" d="M751.52,137.31H727.41l-14.57-26.86q-2.75-4.67-8.72-4.66h-6.68v31.52H675.83V53.14h40.11q15.28,0,23,6.63t7.7,19.16a25.25,25.25,0,0,1-5.25,16.18q-5.25,6.61-14.8,8.89,7.27,1.55,11.58,9.43ZM722.93,87.05c2.1-1.51,3.16-4,3.16-7.4s-1.06-6-3.16-7.58-5.59-2.33-10.45-2.33H697.2V89.32h15.28Q719.77,89.32,722.93,87.05Z"/><path class="cls-1" d="M760.23,53.14h34.26q14,0,24.06,5A35.4,35.4,0,0,1,834,72.66q5.37,9.5,5.37,22.51t-5.32,22.62a35.08,35.08,0,0,1-15.39,14.5q-10.09,5-24.18,5H760.23Zm32.71,66.5q12.4,0,18.51-6.09t6.08-18.38q0-12.3-6.08-18.33t-18.51-6H782.2v48.83Z"/><path class="cls-1" d="M918.29,137.31h-9.91L863.14,97.08v40.23h-7.4V53.14h7.4v39l43-39h9.67L870.3,94.21Z"/><path class="cls-1" d="M928.92,137.31V53.14h7.4v84.17Z"/><path class="cls-1" d="M1017.14,53.14h6.92v84.17h-5.73L965,65.56v71.75H958V53.14h5.85l53.25,71.63Z"/><path class="cls-1" d="M1045.79,53.14h27.09q20.05,0,30.92,10.93t10.86,31.1q0,20.17-10.92,31.15t-30.86,11h-27.09Zm26.73,77.72q17.07,0,25.73-9t8.66-26.74q0-35.58-34.39-35.58h-19.33v71.27Z"/><path class="cls-1" d="M112.47,54.84h20.62v80.77H112.47V103h-33v32.65H58.86V54.84H79.47V86.23h33Z"/><path class="cls-1" d="M133.09,34.3H35.32V156.16H231V34.3Zm53.62,101.31L154.17,99.06v36.55H133.09V150H41.48V40.46h91.61V54.84h21.08V89.56l31.62-34.72h24.63L174.79,93.22l36.89,42.39Z"/></svg>