<?xml version="1.0" encoding="UTF-8" standalone="no"?>
<svg
   id="Layer_1"
   data-name="Layer 1"
   viewBox="0 0 202.53361 107.36929"
   version="1.1"
   sodipodi:docname="HK logo light (blue) min margin.svg"
   width="202.53362"
   height="107.36929"
   inkscape:version="1.1.1 (3bf5ae0d25, 2021-09-20)"
   xmlns:inkscape="http://www.inkscape.org/namespaces/inkscape"
   xmlns:sodipodi="http://sodipodi.sourceforge.net/DTD/sodipodi-0.dtd"
   xmlns="http://www.w3.org/2000/svg"
   xmlns:svg="http://www.w3.org/2000/svg"
   xmlns:rdf="http://www.w3.org/1999/02/22-rdf-syntax-ns#"
   xmlns:cc="http://creativecommons.org/ns#"
   xmlns:dc="http://purl.org/dc/elements/1.1/">
  <sodipodi:namedview
     id="namedview33"
     pagecolor="#ffffff"
     bordercolor="#666666"
     borderopacity="1.0"
     inkscape:pageshadow="2"
     inkscape:pageopacity="0.0"
     inkscape:pagecheckerboard="0"
     showgrid="false"
     inkscape:zoom="1.5765544"
     inkscape:cx="96.412785"
     inkscape:cy="199.48566"
     inkscape:window-width="1920"
     inkscape:window-height="1016"
     inkscape:window-x="0"
     inkscape:window-y="27"
     inkscape:window-maximized="1"
     inkscape:current-layer="layer2"
     showguides="false"
     inkscape:guide-bbox="true">
    <sodipodi:guide
       position="-561.09015,541.99475"
       orientation="1,0"
       id="guide10800" />
    <sodipodi:guide
       position="-301.09016,541.99475"
       orientation="1,0"
       id="guide10802" />
    <sodipodi:guide
       position="-561.09015,541.99475"
       orientation="0,-1"
       id="guide10806" />
    <sodipodi:guide
       position="-561.09015,281.99477"
       orientation="0,-1"
       id="guide10808" />
  </sodipodi:namedview>
  <defs
     id="defs4">
    <style
       id="style2">.cls-1{fill:#fff;}</style>
  </defs>
  <title
     id="title6">HowardKind-horizontal white</title>
  <g
     inkscape:groupmode="layer"
     id="layer1"
     inkscape:label="Layer 1"
     style="display:inline"
     transform="translate(-162.02605,-361.14359)">
    <path
       style="fill:#f9f9f9;stroke-width:17.9406;stroke-miterlimit:5.2"
       d="m 0,235.46987 v -24.21976 h 130.06907 130.06907 v 24.21976 24.21976 H 130.06907 0 Z"
       id="path10847"
       transform="translate(-399.18572,-73.481895)" />
  </g>
  <g
     inkscape:groupmode="layer"
     id="layer2"
     inkscape:label="Layer 2"
     transform="translate(-162.02605,-361.14359)"
     style="display:inline">
    <path
       class="cls-1"
       d="M 260.08834,333.83931 H 130.12059 v 161.9911 h 260.12158 v -161.9911 z m 71.27819,134.67355 -43.25611,-48.5867 v 48.5867 h -28.02208 v 19.12893 H 138.30921 V 342.02793 h 121.77913 v 19.11564 h 28.02208 v 46.15404 l 42.03313,-46.15404 h 32.74119 l -47.36372,51.01935 49.03866,56.34994 z"
       id="path30"
       style="display:inline;fill:#3134d8;fill-opacity:1;stroke-width:1.32932" />
    <path
       style="display:inline;fill:#3134d8;fill-opacity:1;stroke-width:17.8851;stroke-miterlimit:5.2"
       d="m 162.02606,414.03246 v -52.88889 h 13.49481 13.4948 v 20.44445 20.44444 h 22.49135 22.49136 v -20.44444 -20.44445 h 13.04498 13.04498 v 52.88889 52.88889 H 247.04336 233.99838 V 445.14357 423.3658 h -22.49136 -22.49135 v 21.77777 21.77778 h -13.4948 -13.49481 z"
       id="path11262" />
    <path
       style="display:inline;fill:#3134d8;fill-opacity:1;stroke-width:17.9406;stroke-miterlimit:5.2"
       d="m -204.32291,177.77221 c 35.89234,-0.12983 94.62524,-0.12983 130.517583,0 35.89233,0.12984 6.52587,0.23607 -65.258793,0.23607 -71.78467,0 -101.15113,-0.10623 -65.25879,-0.23607 z"
       id="path11379" />
    <path
       style="display:inline;fill:none;fill-opacity:1;stroke-width:12.6859;stroke-miterlimit:5.2"
       d="m -139.73708,259.27011 v -53.28074 h 14.2638 14.26382 l 0.16638,23.05679 0.16639,23.0568 20.931733,-23.03754 20.93172,-23.03753 15.77645,-0.0193 c 14.68571,-0.0179 15.71628,0.0542 14.90593,1.04402 -0.47879,0.58481 -10.93203,11.90425 -23.22942,25.15433 -12.29739,13.25007 -22.35597,24.26026 -22.3524,24.46707 0.005,0.31286 9.8748,11.73011 45.14882,52.22962 l 3.17661,3.64719 h -16.09669 -16.0967 l -21.54802,-24.19852 -21.548033,-24.19852 -0.16611,24.19852 -0.16611,24.19852 h -14.26409 -14.26408 z"
       id="path12306" />
    <path
       style="display:inline;fill:none;fill-opacity:1;stroke-width:12.6859;stroke-miterlimit:5.2"
       d="m -260.88736,259.27011 v -72.30958 h 60.57514 60.57514 v 9.51442 9.51442 h -13.32019 -13.32019 v 20.61457 20.61458 h -22.20031 -22.20032 v -20.61458 -20.61457 h -13.63733 -13.63734 v 53.59789 53.5979 h 13.63734 13.63733 v -21.88317 -21.88316 h 22.20032 22.20031 v 21.88316 21.88317 h 13.32019 13.32019 v 9.19727 9.19727 h -60.57514 -60.57514 z"
       id="path12345" />
    <rect
       style="fill:#3134d8;fill-opacity:1;stroke-width:16.9961;stroke-miterlimit:5.2"
       id="rect13912"
       width="260"
       height="50"
       x="-269.13318"
       y="340.34131" />
    <rect
       style="fill:#3134d8;fill-opacity:1;stroke-width:20.9143;stroke-miterlimit:5.2"
       id="rect14154"
       width="260"
       height="50"
       x="-269.13318"
       y="128.44489" />
    <text
       xml:space="preserve"
       style="font-style:normal;font-weight:normal;font-size:166.29px;line-height:1.25;font-family:sans-serif;letter-spacing:-31.26px;fill:#000000;fill-opacity:1;stroke:none;stroke-width:10;stroke-miterlimit:4;stroke-dasharray:none"
       x="120.08468"
       y="679.04053"
       id="text15040"><tspan
         sodipodi:role="line"
         id="tspan15038"
         x="120.08468"
         y="679.04053"
         style="font-style:normal;font-variant:normal;font-weight:600;font-stretch:normal;font-family:Montserrat;-inkscape-font-specification:'Montserrat Semi-Bold';stroke-width:10;stroke-miterlimit:4;stroke-dasharray:none">HK</tspan></text>
    <rect
       style="fill:none;fill-opacity:1;stroke-width:10;stroke-miterlimit:4;stroke-dasharray:none"
       id="rect38577"
       width="202.53362"
       height="107.36929"
       x="162.02605"
       y="361.14359" />
    <path
       style="fill:#041146;stroke-width:12.6859;stroke-miterlimit:5.2;fill-opacity:1"
       d="m -26.00608,259.74365 v -57.72081 h 10.465861 10.4658619 v 23.78605 23.78605 H 25.371785 55.817928 v -23.78605 -23.78605 h 21.242661 21.24266 l 0.164784,29.93342 0.164783,29.93343 28.837714,-29.93343 28.8377,-29.93342 h 11.63331 11.6333 l -24.19547,25.71318 c -17.16022,18.23663 -24.02205,25.93667 -23.59906,26.4818 1.48492,1.91372 46.30676,57.55218 48.52375,60.23375 l 2.49093,3.0129 -12.26924,-0.0327 -12.26924,-0.0326 -20.53504,-24.43604 -20.53505,-24.43605 -9.40271,9.72134 -9.402722,9.72133 -0.03266,14.74736 -0.03266,14.74735 h -21.24887 -21.24887 v -24.7375 -24.73749 H 25.371785 -5.0743571 v 24.73749 24.7375 H -15.540219 -26.00608 Z"
       id="path1173"
       transform="translate(162.02605,361.14359)" />
    <path
       style="fill:#041146;fill-opacity:1;stroke-width:12.6859;stroke-miterlimit:5.2"
       d="M -31.714732,53.597897 V -26.957522 H 97.998521 227.71177 V 53.597897 134.15332 H 97.998521 -31.714732 Z M 98.315669,117.02736 v -9.51442 h 13.946851 13.94686 l 0.1662,-23.848386 0.1662,-23.848381 21.20217,23.848381 21.20217,23.848386 h 17.07047 17.07046 l -1.48355,-1.75377 C 200.78755,104.7946 189.84438,92.196298 177.28535,77.762943 164.72632,63.329588 154.45074,51.29608 154.45074,51.021811 c 0,-0.274269 10.48965,-11.788398 23.31033,-25.586953 12.82068,-13.798556 23.31033,-25.23762155 23.31033,-25.4201449 0,-0.18252336 -7.49261,-0.32082496 -16.65023,-0.30733668 L 167.77093,-0.26809985 147.15636,22.424834 126.54178,45.117771 126.3753,22.40031 126.20881,-0.31714732 H 112.26224 98.315669 V -9.8315669 -19.345986 H 37.106236 -24.103196 v 72.943883 72.943883 h 61.209432 61.209433 z"
       id="path1249"
       transform="translate(162.02605,361.14359)" />
    <path
       style="fill:#041146;fill-opacity:1;stroke-width:12.6859;stroke-miterlimit:5.2"
       d="M 0,52.963602 V 0.31714732 H 13.320187 26.640375 V 20.614576 40.912004 H 49.474982 72.309589 V 20.614576 0.31714732 H 84.995481 97.681374 V 52.963602 105.61006 H 84.995481 72.309589 V 83.726892 61.843727 H 49.474982 26.640375 V 83.726892 105.61006 H 13.320187 0 Z"
       id="path1288"
       transform="translate(162.02605,361.14359)" />
  </g>
  <path
     class="cls-1"
     d="m 130.03259,-506.40982 h 21.53 v 84.17 h -21.53 v -34 H 95.652593 v 34 h -21.49 v -84.17 h 21.49 v 32.72 h 34.379997 z"
     id="path8"
     style="fill:#000080" />
  <path
     class="cls-1"
     d="m 187.49395,-262.37358 a 36.23,36.23 0 0 1 -14.62,-15 q -5.13,-9.73 -5.13,-22.86 0,-13.13 5.13,-22.87 a 35.91,35.91 0 0 1 14.62,-15.00001 q 9.5,-5.25 22.39,-5.25 12.89,0 22.38,5.25 a 35.56,35.56 0 0 1 14.57,15.00001 q 5.07,9.74 5.07,22.87 0,13.13 -5.13,22.79 a 36.26,36.26 0 0 1 -14.63,15 q -9.48,5.31 -22.26,5.31 -12.78,0 -22.39,-5.24 z m 37.31,-18.27 q 5.37,-6.73 5.37,-19.63 0,-12.9 -5.43,-19.58 -5.43,-6.69 -14.86,-6.69 -9.43,0 -14.92,6.63 -5.38,6.61 -5.38,19.64 0,13.03 5.38,19.69 5.37,6.69 14.92,6.69 9.55,0 14.92,-6.75 z"
     id="path10"
     style="fill:#000080" />
  <path
     class="cls-1"
     d="m 366.27395,-342.30359 h 20.77 l -30.09,84.17001 h -17.43 l -17.79,-50.5 -18,50.5 h -17.57 l -30,-84.17001 h 22.33 l 17.43,53.37001 18.86,-53.37001 h 15.16 l 18,54.32001 z"
     id="path12"
     style="fill:#000080" />
  <path
     class="cls-1"
     d="m 451.74393,-258.13358 -7.52,-17.43 h -37.24998 l -7.52,17.43 h -22.08 l 39.28,-84.17001 h 17.43 l 39.38998,84.17001 z m -37.72998,-33.91 h 23.17 l -11.53,-26.98 z"
     id="path14"
     style="fill:#000080" />
  <path
     class="cls-1"
     d="m 554.17393,-258.13358 h -24.11 l -14.57,-26.86 q -2.75,-4.67 -8.72,-4.66 h -6.68 v 31.52 h -21.61 v -84.17001 h 40.11 q 15.28,0 23,6.63 7.72,6.63001 7.7,19.16001 a 25.25,25.25 0 0 1 -5.25,16.18 q -5.25,6.61 -14.8,8.89 7.27,1.55 11.58,9.43 z m -28.59,-50.26 c 2.1,-1.51 3.16,-4 3.16,-7.4 0,-3.4 -1.06,-6 -3.16,-7.58 -2.1,-1.58 -5.59,-2.33 -10.45,-2.33 h -15.28 v 19.58 h 15.28 q 7.29,0 10.45,-2.27 z"
     id="path16"
     style="fill:#000080" />
  <path
     class="cls-1"
     d="m 562.88393,-342.30359 h 34.26003 q 14,0 24.06,5 a 35.4,35.4 0 0 1 15.45,14.52001 q 5.37,9.5 5.37,22.51 0,13.01 -5.32,22.62 a 35.08,35.08 0 0 1 -15.39,14.5 q -10.09,5 -24.18,5 h -34.25003 z m 32.71003,66.50001 q 12.4,0 18.51,-6.09 6.11,-6.09 6.08,-18.38 0,-12.3 -6.08,-18.33 -6.08,-6.03 -18.51,-6 h -10.74 v 48.83 z"
     id="path18"
     style="fill:#000080" />
  <path
     class="cls-1"
     d="m 720.94396,-258.13358 h -9.91 l -45.24,-40.23 v 40.23 h -7.4 v -84.17001 h 7.4 v 39.00001 l 43,-39.00001 h 9.67 l -45.51,41.07001 z"
     id="path20"
     style="fill:#000080" />
  <path
     class="cls-1"
     d="m 731.57396,-258.13358 v -84.17001 h 7.4 v 84.17001 z"
     id="path22"
     style="fill:#000080" />
  <path
     class="cls-1"
     d="m 819.79396,-342.30359 h 6.92 v 84.17001 h -5.73 l -53.33,-71.75 v 71.75 h -7 v -84.17001 h 5.85 l 53.25,71.63001 z"
     id="path24"
     style="fill:#000080" />
  <path
     class="cls-1"
     d="m 848.44396,-342.30359 h 27.09 q 20.05,0 30.92,10.93001 10.87,10.93 10.86,31.1 0,20.17 -10.92,31.15 -10.92,10.98 -30.86,11 h -27.09 z m 26.73,77.72001 q 17.07,0 25.73,-9 8.66,-9 8.66,-26.74 0,-35.58001 -34.39,-35.58001 h -19.33 v 71.27001 z"
     id="path26"
     style="fill:#000080" />
  <metadata
     id="metadata850">
    <rdf:RDF>
      <cc:Work
         rdf:about="">
        <dc:title>HowardKind-horizontal white</dc:title>
      </cc:Work>
    </rdf:RDF>
  </metadata>
</svg>
